<svg xmlns="http://www.w3.org/2000/svg" width="45.189" height="33.527" viewBox="0 0 45.189 33.527"><defs><style>.a{fill:#ea3339;}</style></defs><g transform="translate(12.257 0)"><g transform="translate(0 0)"><path class="a" d="M135.471,60l-.87-4.787a.728.728,0,0,0-.717-.6H116.392a.728.728,0,0,0-.717.6l-.863,4.744a.729.729,0,1,0,1.434.26L117,56.072h16.275l.762,4.188a.728.728,0,0,0,.716.6.749.749,0,0,0,.131-.012A.728.728,0,0,0,135.471,60Z" transform="translate(-114.8 -54.614)"/></g></g><g transform="translate(0 5.102)"><g transform="translate(0 0)"><path class="a" d="M41.539,102.4H3.649A3.649,3.649,0,0,0,0,106.04v21.144a3.649,3.649,0,0,0,3.649,3.64H41.54a3.649,3.649,0,0,0,3.649-3.64V106.04A3.649,3.649,0,0,0,41.539,102.4Zm2.191,24.785a2.189,2.189,0,0,1-2.191,2.183H3.649a2.189,2.189,0,0,1-2.191-2.182V106.04a2.189,2.189,0,0,1,2.191-2.183H41.54a2.189,2.189,0,0,1,2.191,2.183v21.144Z" transform="translate(0 -102.4)"/></g></g><g transform="translate(10.933 8.017)"><g transform="translate(0 0)"><path class="a" d="M114.062,129.707a11.662,11.662,0,1,0,11.662,11.662A11.675,11.675,0,0,0,114.062,129.707Zm0,21.866a10.2,10.2,0,1,1,10.2-10.2A10.215,10.215,0,0,1,114.062,151.573Z" transform="translate(-102.4 -129.707)"/></g></g><g transform="translate(13.848 10.933)"><g transform="translate(0 0)"><path class="a" d="M138.453,157.013a8.746,8.746,0,1,0,8.746,8.746A8.756,8.756,0,0,0,138.453,157.013Zm0,16.035a7.289,7.289,0,1,1,7.289-7.289A7.3,7.3,0,0,1,138.453,173.048Z" transform="translate(-129.707 -157.013)"/></g></g><g transform="translate(16.764 13.848)"><g transform="translate(0 0)"><path class="a" d="M162.845,184.32a5.837,5.837,0,0,0-5.831,5.831.729.729,0,0,0,1.458,0,4.378,4.378,0,0,1,4.373-4.373.729.729,0,1,0,0-1.458Z" transform="translate(-157.014 -184.32)"/></g></g><g transform="translate(4.373 2.186)"><g transform="translate(0 0)"><path class="a" d="M46.791,75.093h-5.1a.729.729,0,0,0-.729.729v2.915a.729.729,0,0,0,.729.729h5.1a.729.729,0,0,0,.729-.729V75.822A.729.729,0,0,0,46.791,75.093Zm-.729,2.915H42.418V76.551h3.644v1.458Z" transform="translate(-40.96 -75.093)"/></g></g><g transform="translate(36.443 7.288)"><g transform="translate(0 0)"><path class="a" d="M344.248,122.88a2.915,2.915,0,1,0,2.915,2.915A2.919,2.919,0,0,0,344.248,122.88Zm0,4.373a1.458,1.458,0,1,1,1.458-1.458A1.459,1.459,0,0,1,344.248,127.253Z" transform="translate(-341.333 -122.88)"/></g></g></svg>