<svg xmlns="http://www.w3.org/2000/svg" width="32.007" height="42.409" viewBox="0 0 32.007 42.409"><defs><style>.a{fill:#ea3339;}</style></defs><path class="a" d="M16.062,42.409a.8.8,0,0,1-.6-.27C14.834,41.427.059,24.6.059,16a16,16,0,1,1,32.007,0c0,8.6-14.775,25.423-15.4,26.135a.8.8,0,0,1-.6.27Zm0-40.809A14.42,14.42,0,0,0,1.659,16c0,7.072,11.606,21.1,14.4,24.381,2.8-3.278,14.4-17.311,14.4-24.381a14.42,14.42,0,0,0-14.4-14.4Zm0,24.005a9.6,9.6,0,1,1,9.6-9.6A9.613,9.613,0,0,1,16.062,25.606Zm0-17.6a8,8,0,1,0,8,8,8.011,8.011,0,0,0-8-8Zm0,0" transform="translate(-0.059 0)"/></svg>