<svg xmlns="http://www.w3.org/2000/svg" width="35.424" height="38.047" viewBox="0 0 35.424 38.047"><defs><style>.a{fill:#ea3339;}</style></defs><g transform="translate(-13.653)"><g transform="translate(25.007 3.397)"><path class="a" d="M139.808,34.133H128.114a.679.679,0,1,0,0,1.359h11.694a.679.679,0,1,0,0-1.359Z" transform="translate(-127.433 -34.133)"/></g><g transform="translate(13.653 3.397)"><g transform="translate(0)"><path class="a" d="M48.4,34.133H40.561a.679.679,0,1,0,0,1.359h7.153v7.474h-32.7V35.492h7.153a.679.679,0,1,0,0-1.359H14.334a.681.681,0,0,0-.681.679v8.832a.681.681,0,0,0,.681.679H48.4a.681.681,0,0,0,.681-.679V34.812A.681.681,0,0,0,48.4,34.133Z" transform="translate(-13.653 -34.133)"/></g></g><g transform="translate(13.653 12.23)"><g transform="translate(0)"><path class="a" d="M48.4,122.88H14.334a.681.681,0,0,0-.681.679V145.35a3.356,3.356,0,0,0,3.356,3.348H45.72a3.356,3.356,0,0,0,3.356-3.348V123.559A.681.681,0,0,0,48.4,122.88Zm-.681,22.47a1.994,1.994,0,0,1-1.994,1.989H17.009a1.994,1.994,0,0,1-1.994-1.989V124.239h32.7Z" transform="translate(-13.653 -122.88)"/></g></g><g transform="translate(21.828)"><path class="a" d="M97.617,0a2.043,2.043,0,0,0-2.044,2.038V6.115a2.044,2.044,0,0,0,4.087,0V2.038A2.043,2.043,0,0,0,97.617,0ZM98.3,6.115a.681.681,0,0,1-1.363,0V2.038a.681.681,0,0,1,1.363,0Z" transform="translate(-95.573 0)"/></g><g transform="translate(36.815)"><path class="a" d="M247.8,0a2.043,2.043,0,0,0-2.044,2.038V6.115a2.044,2.044,0,0,0,4.087,0V2.038A2.043,2.043,0,0,0,247.8,0Zm.681,6.115a.681.681,0,0,1-1.362,0V2.038a.681.681,0,0,1,1.362,0Z" transform="translate(-245.76 0)"/></g><g transform="translate(23.19 16.307)"><path class="a" d="M126.908,165.563a2.025,2.025,0,0,0-.822-1.328,2.05,2.05,0,0,0-2.852.46l-7.665,10.586-3.114-2.218a2.04,2.04,0,1,0-2.376,3.316l4.769,3.4a2.046,2.046,0,0,0,2.844-.465l8.856-12.229A2.02,2.02,0,0,0,126.908,165.563Zm-1.466.723-8.856,12.23a.7.7,0,0,1-.948.155l-4.769-3.4a.68.68,0,0,1,.284-1.224.714.714,0,0,1,.113-.009.678.678,0,0,1,.394.127l3.666,2.612a.682.682,0,0,0,.948-.155l8.062-11.134a.684.684,0,0,1,.951-.153.678.678,0,0,1,.153.949Z" transform="translate(-109.222 -163.851)"/></g></g></svg>