<svg xmlns="http://www.w3.org/2000/svg" width="44.99" height="39.56" viewBox="0 0 44.99 39.56"><defs><style>.a{fill:#ea3339;}</style></defs><g transform="translate(-71 -93.142)"><g transform="translate(71 93.142)"><g transform="translate(10.86 30.252)"><path class="a" d="M52.441,145.067a4.654,4.654,0,1,0,4.654,4.654A4.659,4.659,0,0,0,52.441,145.067Zm0,7.757a3.1,3.1,0,1,1,3.1-3.1A3.106,3.106,0,0,1,52.441,152.824Z" transform="translate(-47.787 -145.067)"/></g><g transform="translate(27.924 30.251)"><path class="a" d="M132.181,149.482a4.654,4.654,0,1,0-4.651,4.891c.079,0,.159,0,.239-.006A4.66,4.66,0,0,0,132.181,149.482Zm-4.491,3.335a3.1,3.1,0,0,1-.315-6.2c.054,0,.106,0,.159,0a3.1,3.1,0,0,1,.156,6.2Z" transform="translate(-122.878 -145.064)"/></g><g transform="translate(0 0)"><path class="a" d="M38.628,33.975a.776.776,0,0,0-.619-.308H11.465L6.182,12.535a.775.775,0,0,0-.752-.588H.776a.776.776,0,0,0,0,1.551H4.824L10.107,34.63a.775.775,0,0,0,.752.588H36.98L35.872,39.1H12.411a.776.776,0,1,0,0,1.551H36.457a.775.775,0,0,0,.746-.563l1.551-5.43A.775.775,0,0,0,38.628,33.975Z" transform="translate(0 -11.947)"/></g><g transform="translate(9.308 3.103)"><g transform="translate(0 0)"><path class="a" d="M76.5,25.923a.776.776,0,0,0-.629-.322H41.736a.776.776,0,0,0,0,1.551H74.79L69.7,42.42a.776.776,0,0,0,1.472.491L76.6,26.622A.774.774,0,0,0,76.5,25.923Z" transform="translate(-40.96 -25.601)"/></g></g><g transform="translate(10.86 7.757)"><g transform="translate(0 0)"><path class="a" d="M78.814,46.08H48.563a.776.776,0,0,0,0,1.551H78.814a.776.776,0,0,0,0-1.551Z" transform="translate(-47.787 -46.08)"/></g></g><g transform="translate(12.411 12.411)"><path class="a" d="M82.538,66.56H55.39a.776.776,0,1,0,0,1.551H82.539a.776.776,0,1,0,0-1.551Z" transform="translate(-54.614 -66.56)"/></g><g transform="translate(13.187 17.065)"><path class="a" d="M83.625,87.04H58.8a.776.776,0,1,0,0,1.551H83.625a.776.776,0,1,0,0-1.551Z" transform="translate(-58.027 -87.04)"/></g></g></g></svg>